<svg width="23" height="25" viewBox="0 0 23 25" fill="none" xmlns="http://www.w3.org/2000/svg">
<path d="M18.8495 1.72297C17.1741 0.759867 15.1856 0.499026 13.3185 0.997445C11.4514 1.49586 9.8575 2.71302 8.885 4.38297L8.619 4.84322C8.56128 4.94281 8.52377 5.0528 8.50862 5.16691C8.49348 5.28101 8.501 5.39698 8.53075 5.50818C8.5605 5.61937 8.61189 5.7236 8.68199 5.8149C8.75209 5.9062 8.83951 5.98277 8.93925 6.04022L13.5733 8.70373L10.7225 13.686C8.185 14.0167 6.0325 15.6635 4.6675 17.8755C5.3031 17.7326 5.96912 17.8311 6.5361 18.152C7.10307 18.4728 7.53049 18.993 7.73525 19.6115C7.78894 19.8127 7.90692 19.991 8.07125 20.119C8.19161 20.2039 8.33519 20.2497 8.4825 20.2502C8.62435 20.2528 8.76359 20.2119 8.8815 20.133C9.02662 20.0263 9.13194 19.8741 9.18075 19.7007C9.35851 19.1837 9.69327 18.7351 10.1383 18.4175C10.5833 18.0999 11.1164 17.9292 11.6631 17.9292C12.2098 17.9292 12.7429 18.0999 13.188 18.4175C13.633 18.7351 13.9677 19.1837 14.1455 19.7007C14.233 19.951 14.352 20.07 14.4448 20.133C14.5533 20.2065 14.6898 20.2502 14.8455 20.2485C14.992 20.2481 15.1349 20.2029 15.255 20.119C15.4193 19.991 15.5373 19.8127 15.591 19.6115C15.7958 18.993 16.2232 18.4728 16.7902 18.152C17.3571 17.8311 18.0232 17.7326 18.6588 17.8755C17.3183 15.6985 15.213 14.071 12.728 13.7035L15.0888 9.57347L20.0587 12.4295C20.2592 12.5445 20.497 12.5756 20.7203 12.516C20.9436 12.4563 21.1342 12.3107 21.2505 12.111L21.5183 11.649C21.9975 10.8226 22.3087 9.90963 22.4338 8.96257C22.5589 8.01551 22.4956 7.05305 22.2474 6.13056C21.9992 5.20807 21.5711 4.34376 20.9877 3.58733C20.4042 2.83091 19.677 2.19731 18.8478 1.72297H18.8495ZM6.0745 20.1627C6.0147 19.9827 5.89799 19.8269 5.74197 19.719C5.58595 19.611 5.39907 19.5567 5.20949 19.5642C5.01991 19.5717 4.83791 19.6406 4.69091 19.7606C4.54391 19.8805 4.43988 20.045 4.3945 20.2292C4.17575 21.1252 3.768 21.5942 3.32175 21.8655C2.844 22.1542 2.22275 22.2732 1.5 22.2732C1.26794 22.2732 1.04538 22.3654 0.881282 22.5295C0.717187 22.6936 0.625 22.9162 0.625 23.1482C0.625 23.3803 0.717187 23.6028 0.881282 23.7669C1.04538 23.931 1.26794 24.0232 1.5 24.0232C2.382 24.0232 3.3655 23.8832 4.2265 23.3635C4.6535 23.1045 5.02975 22.7667 5.3395 22.3397C7.02125 24.2297 10.0295 24.2192 11.6658 22.3065C13.33 24.2542 16.4188 24.2315 18.0813 22.2365C18.5368 22.791 19.1088 23.2384 19.7566 23.5472C20.4044 23.856 21.1121 24.0185 21.8297 24.0232C22.0618 24.0232 22.2844 23.931 22.4485 23.7669C22.6126 23.6028 22.7047 23.3803 22.7047 23.1482C22.7047 22.9162 22.6126 22.6936 22.4485 22.5295C22.2844 22.3654 22.0618 22.2732 21.8297 22.2732C20.5767 22.2732 19.329 21.4542 18.9178 20.1715C18.8611 19.9961 18.7506 19.8431 18.6019 19.7342C18.4532 19.6254 18.2739 19.5663 18.0897 19.5653C17.9054 19.5643 17.7255 19.6216 17.5757 19.7288C17.4258 19.8361 17.3137 19.988 17.2553 20.1627C16.4415 22.6145 13.2828 22.5725 12.4918 20.2677C12.4322 20.0958 12.3206 19.9467 12.1724 19.8412C12.0242 19.7356 11.8468 19.6789 11.6649 19.6789C11.4829 19.6789 11.3055 19.7356 11.1573 19.8412C11.0091 19.9467 10.8975 20.0958 10.838 20.2677C10.0452 22.5725 6.88825 22.6145 6.07625 20.1627H6.0745Z" fill="#455B66"/>
<circle cx="4.5" cy="1.5" r="1.25" stroke="#455B66" stroke-width="0.5"/>
</svg>
