<svg width="28" height="24" viewBox="0 0 28 24" fill="none" xmlns="http://www.w3.org/2000/svg">
<path d="M21.5 15.875V4C21.5 2.61875 22.6187 1.5 24 1.5H26.5" stroke="#455B66" stroke-width="3" stroke-miterlimit="2" stroke-linecap="round" stroke-linejoin="round"/>
<path d="M5.25 15.875V4C5.25 2.61875 6.36875 1.5 7.75 1.5H10.25" stroke="#455B66" stroke-width="3" stroke-miterlimit="2" stroke-linecap="round" stroke-linejoin="round"/>
<path d="M5.25 6.5H21.5" stroke="#455B66" stroke-width="3" stroke-miterlimit="2" stroke-linecap="round" stroke-linejoin="round"/>
<path d="M5.25 11.5H21.5" stroke="#455B66" stroke-width="3" stroke-miterlimit="2" stroke-linecap="round" stroke-linejoin="round"/>
<path d="M1.5 21L3.0625 21.8444C4.0625 22.385 5.1875 22.385 6.1875 21.8444C7.1875 21.3044 8.3125 21.3044 9.3125 21.8444C10.3125 22.385 11.4375 22.385 12.4375 21.8444C13.4375 21.3044 14.5625 21.3044 15.5625 21.8444C16.5625 22.385 17.6875 22.385 18.6875 21.8444C19.6875 21.3044 20.8125 21.3044 21.8125 21.8444C22.8125 22.385 23.9375 22.385 24.9375 21.8444L26.5 21" stroke="#455B66" stroke-width="3" stroke-miterlimit="2" stroke-linecap="round" stroke-linejoin="round"/>
</svg>
