<svg width="16" height="11" viewBox="0 0 16 11" fill="none" xmlns="http://www.w3.org/2000/svg">
<path fill-rule="evenodd" clip-rule="evenodd" d="M0 2.5C0 1.96957 0.210714 1.46086 0.585786 1.08579C0.960859 0.710714 1.46957 0.5 2 0.5H9.5C9.98509 0.499943 10.4537 0.676193 10.8185 0.995928C11.1833 1.31566 11.4195 1.75709 11.483 2.238L14.593 0.856C14.7452 0.788172 14.912 0.759464 15.0781 0.772485C15.2443 0.785507 15.4045 0.839846 15.5443 0.930562C15.6841 1.02128 15.7991 1.1455 15.8786 1.29192C15.9582 1.43835 15.9999 1.60235 16 1.769V9.231C15.9999 9.39752 15.9581 9.56138 15.8786 9.70768C15.7991 9.85399 15.6843 9.97813 15.5446 10.0688C15.4049 10.1595 15.2449 10.2139 15.0788 10.227C14.9128 10.2401 14.7462 10.2116 14.594 10.144L11.483 8.762C11.4195 9.24291 11.1833 9.68434 10.8185 10.0041C10.4537 10.3238 9.98509 10.5001 9.5 10.5H2C1.46957 10.5 0.960859 10.2893 0.585786 9.91421C0.210714 9.53914 0 9.03043 0 8.5V2.5Z" fill="white"/>
</svg>
