<svg width="22" height="30" viewBox="0 0 22 30" fill="none" xmlns="http://www.w3.org/2000/svg">
<path fill-rule="evenodd" clip-rule="evenodd" d="M0 10.7858C0 4.8228 4.91857 0 11 0C17.0814 0 22 4.8228 22 10.7858C22 17.2111 15.0543 26.0709 12.21 29.4453C11.5814 30.1849 10.4343 30.1849 9.80571 29.4453C6.94571 26.0709 0 17.2111 0 10.7858ZM7.07129 10.7858C7.07129 12.9122 8.83129 14.6379 10.9999 14.6379C13.1684 14.6379 14.9284 12.9122 14.9284 10.7858C14.9284 8.65946 13.1684 6.93373 10.9999 6.93373C8.83129 6.93373 7.07129 8.65946 7.07129 10.7858Z" fill="#F4511E"/>
</svg>
