<svg width="25" height="19" viewBox="0 0 25 19" fill="none" xmlns="http://www.w3.org/2000/svg">
<path d="M25 16.9643V18.3214H6.42857V16.9643H25ZM1.42857 16.2857C1.80745 16.2857 2.17081 16.4287 2.43872 16.6832C2.70663 16.9377 2.85714 17.2829 2.85714 17.6429C2.85714 18.0028 2.70663 18.348 2.43872 18.6025C2.17081 18.857 1.80745 19 1.42857 19C1.04969 19 0.686328 18.857 0.418419 18.6025C0.15051 18.348 0 18.0028 0 17.6429C0 17.2829 0.15051 16.9377 0.418419 16.6832C0.686328 16.4287 1.04969 16.2857 1.42857 16.2857ZM25 8.82143V10.1786H6.42857V8.82143H25ZM1.42857 8.14286C1.80745 8.14286 2.17081 8.28584 2.43872 8.54035C2.70663 8.79487 2.85714 9.14006 2.85714 9.5C2.85714 9.85994 2.70663 10.2051 2.43872 10.4596C2.17081 10.7142 1.80745 10.8571 1.42857 10.8571C1.04969 10.8571 0.686328 10.7142 0.418419 10.4596C0.15051 10.2051 0 9.85994 0 9.5C0 9.14006 0.15051 8.79487 0.418419 8.54035C0.686328 8.28584 1.04969 8.14286 1.42857 8.14286ZM25 0.678571V2.03571H6.42857V0.678571H25ZM1.42857 0C1.80745 0 2.17081 0.142985 2.43872 0.397498C2.70663 0.652012 2.85714 0.997206 2.85714 1.35714C2.85714 1.71708 2.70663 2.06227 2.43872 2.31679C2.17081 2.5713 1.80745 2.71429 1.42857 2.71429C1.04969 2.71429 0.686328 2.5713 0.418419 2.31679C0.15051 2.06227 0 1.71708 0 1.35714C0 0.997206 0.15051 0.652012 0.418419 0.397498C0.686328 0.142985 1.04969 0 1.42857 0Z" fill="white"/>
</svg>
