<svg width="23" height="23" viewBox="0 0 23 23" fill="none" xmlns="http://www.w3.org/2000/svg">
<circle cx="11.5" cy="11.5" r="11.5" fill="#2878B7"/>
<path d="M16.3908 6.85336C15.1218 5.73432 13.5885 5.1748 11.685 5.1748C9.72871 5.1748 8.03675 5.78519 6.66204 7.05682C5.28733 8.32846 4.59998 9.90529 4.59998 11.7873C4.59998 13.6185 5.23446 15.1444 6.5563 16.4669C7.87814 17.7894 9.62297 18.3998 11.8965 18.3998C13.2184 18.3998 14.5402 18.1455 15.8621 17.586C16.285 17.4334 16.4965 16.9247 16.3379 16.5178C16.1793 16.1109 15.6506 15.9074 15.2276 16.06C14.1172 16.5178 13.0069 16.7721 11.9494 16.7721C10.2574 16.7721 8.9356 16.2635 7.98388 15.2462C7.03216 14.2288 6.5563 13.0589 6.5563 11.7364C6.5563 10.2613 7.08503 9.04057 8.03676 8.07413C9.04135 7.10769 10.2574 6.59904 11.7379 6.59904C13.0597 6.59904 14.223 7.00596 15.1747 7.8198C16.1264 8.63365 16.5494 9.65096 16.5494 10.8717C16.5494 11.6856 16.3379 12.3977 15.9149 12.9572C15.4919 13.5167 15.0689 13.7711 14.5931 13.7711C14.3287 13.7711 14.223 13.6693 14.223 13.3641C14.223 13.1607 14.223 12.9063 14.2758 12.652L14.8046 8.53192H13.0069L12.9011 8.93884C12.4253 8.58279 11.9494 8.37932 11.4207 8.37932C10.5747 8.37932 9.83446 8.73538 9.19998 9.39663C8.5655 10.0579 8.30112 10.9226 8.30112 11.9399C8.30112 12.9572 8.5655 13.7711 9.1471 14.4323C9.67584 15.0427 10.3632 15.3479 11.1034 15.3479C11.7908 15.3479 12.3724 15.0936 12.8483 14.534C13.2184 15.0427 13.7471 15.3479 14.4873 15.3479C15.5448 15.3479 16.4436 14.8901 17.2368 14.0254C18.0299 13.1607 18.4 12.0925 18.4 10.8209C18.2414 9.2949 17.6069 7.92154 16.3908 6.85336ZM12.2138 13.0589C11.8965 13.4659 11.5264 13.6693 11.0506 13.6693C10.7333 13.6693 10.5218 13.5167 10.3103 13.2115C10.0988 12.9063 10.046 12.5503 10.046 12.0925C10.046 11.533 10.1517 11.0752 10.4161 10.77C10.6804 10.4139 10.9977 10.2613 11.3678 10.2613C11.685 10.2613 12.0023 10.3631 12.2666 10.6683C12.531 10.9226 12.6368 11.2787 12.6368 11.6856C12.6896 12.1942 12.531 12.652 12.2138 13.0589Z" fill="#FECD81"/>
</svg>
