<svg width="23" height="19" viewBox="0 0 23 19" fill="none" xmlns="http://www.w3.org/2000/svg">
<path d="M1.91699 3.75004C1.91699 3.24171 2.11893 2.7542 2.47837 2.39475C2.83782 2.03531 3.32533 1.83337 3.83366 1.83337H19.167C19.6753 1.83337 20.1628 2.03531 20.5223 2.39475C20.8817 2.7542 21.0837 3.24171 21.0837 3.75004V15.25C21.0837 15.7584 20.8817 16.2459 20.5223 16.6053C20.1628 16.9648 19.6753 17.1667 19.167 17.1667H3.83366C3.32533 17.1667 2.83782 16.9648 2.47837 16.6053C2.11893 16.2459 1.91699 15.7584 1.91699 15.25V3.75004Z" stroke="#F4511E" stroke-width="2" stroke-linecap="round" stroke-linejoin="round"/>
<path d="M1.91699 5.66675L9.10545 11.4177C9.78519 11.9616 10.6298 12.2579 11.5003 12.2579C12.3709 12.2579 13.2155 11.9616 13.8952 11.4177L21.0837 5.66675" stroke="#F4511E" stroke-width="2" stroke-linejoin="round"/>
</svg>
