<svg width="21" height="22" viewBox="0 0 21 22" fill="none" xmlns="http://www.w3.org/2000/svg">
<path d="M20.9881 17.1357C20.938 16.826 20.7439 16.5614 20.4532 16.4041L16.1527 13.8696L16.1173 13.8498C15.937 13.7595 15.7378 13.7132 15.5362 13.7147C15.1759 13.7147 14.8318 13.8513 14.593 14.0908L13.3237 15.361C13.2694 15.4126 13.0924 15.4874 13.0387 15.4901C13.024 15.4889 11.5618 15.3835 8.86988 12.6906C6.18277 10.0033 6.06877 8.53616 6.06787 8.53616C6.06937 8.46114 6.14317 8.28468 6.19567 8.23007L7.27807 7.14766C7.65937 6.76535 7.77367 6.13157 7.54747 5.64062L5.15706 1.14143C4.98336 0.783729 4.64586 0.562866 4.27146 0.562866C4.00656 0.562866 3.75096 0.672698 3.55116 0.872255L0.600652 3.817C0.317751 4.09848 0.0741501 4.59062 0.02105 4.98674C-0.0047501 5.17609 -0.528252 9.69599 5.66677 15.8937C10.9261 21.1539 15.0271 21.5626 16.1596 21.5626C16.2975 21.5644 16.4354 21.5573 16.5724 21.5413C16.9672 21.4885 17.4586 21.2454 17.7397 20.9636L20.6878 18.015C20.9284 17.7731 21.0382 17.4535 20.9881 17.1357Z" fill="#F4511E"/>
</svg>
